ply
format ascii 1.0
comment Created by Blender 2.79 (sub 0) - www.blender.org, source file: ''
element vertex 194
property float x
property float y
property float z
property float s
property float t
element face 132
property list uchar uint vertex_indices
end_header
31.300001 -222.800095 517.499939 0.390100 0.503100
31.300001 -227.800079 517.499939 0.352800 0.503100
29.200001 -227.800079 507.199951 0.352800 0.408700
29.200001 -222.800095 507.199951 0.390100 0.408700
-31.300001 -222.800095 517.499939 0.609900 0.503100
-31.300001 -227.800079 517.499939 0.647200 0.503100
-29.200001 -227.800079 527.899902 0.647200 0.597500
-29.200001 -222.800095 527.899902 0.609900 0.597500
10.800000 -222.800095 527.899902 0.609400 0.390100
10.400000 -229.500092 527.899902 0.605200 0.339900
29.200001 -227.800079 527.899902 0.810200 0.352800
29.200001 -222.800095 527.899902 0.810200 0.390100
-10.800000 -222.800095 527.899902 0.373400 0.390100
-10.400000 -229.500092 527.899902 0.377600 0.339900
-10.800000 -222.800095 507.199951 0.626600 0.390100
-10.400000 -229.500092 507.199951 0.622400 0.339900
-29.200001 -227.800079 507.199951 0.827400 0.352800
-29.200001 -222.800095 507.199951 0.827400 0.390100
29.200001 -227.800079 507.199951 0.810200 0.408700
31.300001 -227.800079 517.499939 0.832800 0.503100
10.400000 -229.500092 517.499939 0.605200 0.503100
10.400000 -229.500092 507.199951 0.605200 0.408700
-29.200001 -227.800079 527.899902 0.172600 0.597500
-31.300001 -227.800079 517.499939 0.150100 0.503100
-10.400000 -229.500092 517.499939 0.377600 0.503100
-10.400000 -229.500092 527.899902 0.377600 0.597500
-29.200001 -222.800095 527.899902 0.172600 0.390100
-29.200001 -227.800079 527.899902 0.172600 0.352800
10.800000 -222.800095 507.199951 0.390600 0.390100
10.400000 -229.500092 507.199951 0.394800 0.339900
29.200001 -222.800095 507.199951 0.189800 0.390100
29.200001 -227.800079 507.199951 0.189800 0.352800
29.200001 -227.800079 527.899902 0.352800 0.597500
29.200001 -222.800095 527.899902 0.390100 0.597500
-29.200001 -227.800079 507.199951 0.647200 0.408700
-29.200001 -222.800095 507.199951 0.609900 0.408700
29.200001 -227.800079 527.899902 0.810200 0.597500
10.400000 -229.500092 527.899902 0.605200 0.597500
-29.200001 -227.800079 507.199951 0.172600 0.408700
-10.400000 -229.500092 507.199951 0.377600 0.408700
10.800000 -222.800095 517.499939 0.390600 0.503100
31.300001 -222.800095 517.499939 0.167200 0.503100
29.200001 -222.800095 507.199951 0.189800 0.408700
10.800000 -222.800095 507.199951 0.390600 0.408700
-10.800000 -222.800095 507.199951 0.626600 0.408700
-29.200001 -222.800095 507.199951 0.827400 0.408700
-31.300001 -222.800095 517.499939 0.849900 0.503100
-10.800000 -222.800095 517.499939 0.626600 0.503100
-10.800000 -222.800095 527.899902 0.626600 0.597500
10.800000 -222.800095 527.899902 0.390600 0.597500
29.200001 -222.800095 527.899902 0.189800 0.597500
-29.200001 -222.800095 527.899902 0.827400 0.597500
10.400000 -229.500092 527.899902 0.605200 0.597500
5.600000 -229.500092 519.299927 0.552700 0.519100
10.400000 -229.500092 517.499939 0.605200 0.503100
-10.400000 -229.500092 527.899902 0.377600 0.597500
-10.400000 -229.500092 517.499939 0.377600 0.503100
-5.600000 -229.500092 519.299927 0.430100 0.519100
5.600000 -224.100082 515.799927 0.552700 0.487000
5.600000 -224.100082 519.299927 0.552700 0.519100
-5.600000 -224.100082 519.299927 0.430100 0.519100
-5.600000 -224.100082 515.799927 0.430100 0.487000
10.400000 -229.500092 507.199951 0.605200 0.408700
5.600000 -229.500092 515.799927 0.552700 0.487000
-5.600000 -229.500092 515.799927 0.430100 0.487000
-10.400000 -229.500092 507.199951 0.377600 0.408700
-5.600000 -229.500092 519.299927 0.339900 0.519100
-5.600000 -229.500092 515.799927 0.339900 0.487000
-5.600000 -224.100082 515.799927 0.380200 0.487000
-5.600000 -224.100082 519.299927 0.380200 0.519100
-5.600000 -229.500092 515.799927 0.430100 0.339900
5.600000 -229.500092 515.799927 0.552700 0.339900
5.600000 -224.100082 515.799927 0.552700 0.380200
-5.600000 -224.100082 515.799927 0.430100 0.380200
5.600000 -229.500092 515.799927 0.660100 0.487000
5.600000 -229.500092 519.299927 0.660100 0.519100
5.600000 -224.100082 519.299927 0.619800 0.519100
5.600000 -224.100082 515.799927 0.619800 0.487000
5.600000 -229.500092 519.299927 0.447300 0.339900
-5.600000 -229.500092 519.299927 0.569900 0.339900
-5.600000 -224.100082 519.299927 0.569900 0.380200
5.600000 -224.100082 519.299927 0.447300 0.380200
22.299999 -198.100098 528.299927 0.576900 0.600600
22.299999 -202.500092 528.299927 0.544000 0.600600
23.900000 -202.500092 517.499939 0.544000 0.502400
23.900000 -198.100098 517.499939 0.576900 0.502400
10.900001 -204.700089 529.099915 0.611000 0.527400
10.900001 -198.100098 529.099915 0.611000 0.576900
-10.900001 -198.100098 529.099915 0.371900 0.576900
-10.900001 -204.700089 529.099915 0.371900 0.527400
-22.299999 -198.100098 528.299927 0.247900 0.576900
-22.299999 -202.500092 528.299927 0.247900 0.544000
-22.299999 -198.100098 506.699921 0.423100 0.404900
-22.299999 -202.500092 506.699921 0.456000 0.404900
-23.900000 -202.500092 517.499939 0.456000 0.502400
-23.900000 -198.100098 517.499939 0.423100 0.502400
-10.900001 -204.700089 505.999908 0.627900 0.527400
-10.900001 -198.100098 505.999908 0.627900 0.576900
10.900001 -198.100098 505.999908 0.389300 0.576900
10.900001 -204.700089 505.999908 0.389300 0.527400
22.299999 -198.100098 506.699921 0.265300 0.576900
22.299999 -202.500092 506.699921 0.265300 0.544000
22.299999 -198.100098 528.299927 0.734900 0.576900
22.299999 -202.500092 528.299927 0.734900 0.544000
-22.299999 -202.500092 528.299927 0.456000 0.600600
-22.299999 -198.100098 528.299927 0.423100 0.600600
-22.299999 -202.500092 506.699921 0.751900 0.544000
-22.299999 -198.100098 506.699921 0.751900 0.576900
22.299999 -202.500092 506.699921 0.544000 0.404900
22.299999 -198.100098 506.699921 0.576900 0.404900
10.900001 -204.700089 529.099915 0.611000 0.608200
-10.900001 -204.700089 529.099915 0.371900 0.608200
-10.900001 -204.700089 505.999908 0.372100 0.397800
10.900001 -204.700089 505.999908 0.610700 0.397800
22.299999 -202.500092 506.699921 0.734700 0.404900
23.900000 -202.500092 517.499939 0.753000 0.502400
22.299999 -202.500092 528.299927 0.734900 0.600600
-22.299999 -202.500092 528.299927 0.247900 0.600600
-23.900000 -202.500092 517.499939 0.229900 0.502400
-22.299999 -202.500092 506.699921 0.248100 0.404900
10.000000 -196.800079 517.599915 0.586500 0.503200
5.000000 -196.800079 508.899933 0.586500 0.424100
5.000000 -189.800079 508.899933 0.639800 0.424100
10.000000 -189.800079 517.599915 0.639800 0.503200
5.000000 -196.800079 508.899933 0.454000 0.586500
-5.000000 -196.800079 508.899933 0.563200 0.586500
-5.000000 -189.800079 508.899933 0.563200 0.639800
5.000000 -189.800079 508.899933 0.454000 0.639800
-5.000000 -196.800079 508.899933 0.413500 0.424100
-10.000000 -196.800079 517.599915 0.413500 0.503200
-10.000000 -189.800079 517.599915 0.360200 0.503200
-5.000000 -189.800079 508.899933 0.360200 0.424100
-5.000000 -196.800079 526.199951 0.413500 0.581400
-5.000000 -189.800079 526.199951 0.360200 0.581400
-5.000000 -196.800079 526.199951 0.436800 0.586500
5.000000 -196.800079 526.199951 0.546000 0.586500
5.000000 -189.800079 526.199951 0.546000 0.639800
-5.000000 -189.800079 526.199951 0.436800 0.639800
5.000000 -196.800079 526.199951 0.586500 0.581400
5.000000 -189.800079 526.199951 0.639800 0.581400
31.300001 -189.800079 508.899933 0.639800 0.424100
31.300001 -187.100082 508.899933 0.660100 0.424100
31.300001 -187.100082 526.199951 0.660100 0.581400
31.300001 -189.800079 526.199951 0.639800 0.581400
-31.300001 -189.800079 526.199951 0.360200 0.581400
-31.300001 -187.100082 526.199951 0.339900 0.581400
-31.300001 -187.100082 508.899933 0.339900 0.424100
-31.300001 -189.800079 508.899933 0.360200 0.424100
5.000000 -189.800079 526.199951 0.546000 0.581400
10.000000 -189.800079 517.599915 0.600600 0.503200
31.300001 -189.800079 526.199951 0.832800 0.581400
5.000000 -189.800079 508.899933 0.454000 0.639800
31.300001 -187.100082 508.899933 0.167200 0.660100
31.300001 -189.800079 508.899933 0.167200 0.639800
-5.000000 -189.800079 508.899933 0.563200 0.639800
-31.300001 -187.100082 508.899933 0.849900 0.660100
-5.000000 -189.800079 508.899933 0.436800 0.424100
-10.000000 -189.800079 517.599915 0.382200 0.503200
-31.300001 -189.800079 508.899933 0.150100 0.424100
-5.000000 -189.800079 526.199951 0.436800 0.639800
-31.300001 -187.100082 526.199951 0.150100 0.660100
-31.300001 -189.800079 526.199951 0.150100 0.639800
31.300001 -187.100082 526.199951 0.167200 0.581400
31.300001 -187.100082 508.899933 0.167200 0.424100
-31.300001 -187.100082 508.899933 0.849900 0.424100
-31.300001 -187.100082 526.199951 0.849900 0.581400
-31.300001 -189.800079 508.899933 0.849900 0.639800
5.000000 -189.800079 526.199951 0.546000 0.639800
31.300001 -187.100082 526.199951 0.832800 0.660100
31.300001 -189.800079 526.199951 0.832800 0.639800
31.300001 -189.800079 508.899933 0.832800 0.424100
5.000000 -189.800079 508.899933 0.546000 0.424100
-31.300001 -189.800079 526.199951 0.150100 0.581400
-5.000000 -189.800079 526.199951 0.436800 0.581400
10.000000 -204.700089 517.499939 0.527400 0.502600
5.000000 -204.700089 526.199951 0.527400 0.581700
5.000000 -222.800095 526.199951 0.390100 0.581700
10.000000 -222.800095 517.499939 0.390100 0.502600
5.000000 -204.700089 526.199951 0.546000 0.527400
-5.000000 -204.700089 526.199951 0.436800 0.527400
-5.000000 -222.800095 526.199951 0.436800 0.390100
5.000000 -222.800095 526.199951 0.546000 0.390100
-5.000000 -204.700089 526.199951 0.472600 0.581700
-10.000000 -204.700089 517.499939 0.472600 0.502600
-10.000000 -222.800095 517.499939 0.609900 0.502600
-5.000000 -222.800095 526.199951 0.609900 0.581700
-5.000000 -204.700089 508.899933 0.472600 0.424400
-5.000000 -222.800095 508.899933 0.609900 0.424400
-5.000000 -204.700089 508.899933 0.563200 0.527400
5.000000 -204.700089 508.899933 0.454000 0.527400
5.000000 -222.800095 508.899933 0.454000 0.390100
-5.000000 -222.800095 508.899933 0.563200 0.390100
5.000000 -204.700089 508.899933 0.527400 0.424400
5.000000 -222.800095 508.899933 0.390100 0.424400
3 0 1 2
3 2 3 0
3 4 5 6
3 6 7 4
3 8 9 10
3 10 11 8
3 12 13 9
3 9 8 12
3 14 15 16
3 16 17 14
3 18 19 20
3 20 21 18
3 22 23 24
3 24 25 22
3 12 26 27
3 27 13 12
3 14 28 29
3 29 15 14
3 28 30 31
3 31 29 28
3 32 1 0
3 0 33 32
3 34 5 4
3 4 35 34
3 36 37 20
3 20 19 36
3 38 39 24
3 24 23 38
3 40 41 42
3 42 43 40
3 44 45 46
3 46 47 44
3 44 47 40
3 40 43 44
3 48 49 40
3 40 47 48
3 50 41 40
3 40 49 50
3 46 51 48
3 48 47 46
3 52 53 54
3 55 56 57
3 58 59 60
3 60 61 58
3 62 63 64
3 64 65 62
3 55 57 53
3 53 52 55
3 63 62 54
3 53 63 54
3 56 65 64
3 56 64 57
3 66 67 68
3 68 69 66
3 70 71 72
3 72 73 70
3 74 75 76
3 76 77 74
3 78 79 80
3 80 81 78
3 82 83 84
3 84 85 82
3 86 87 88
3 88 89 86
3 90 91 89
3 89 88 90
3 92 93 94
3 94 95 92
3 96 97 98
3 98 99 96
3 100 101 99
3 99 98 100
3 102 87 86
3 86 103 102
3 94 104 105
3 105 95 94
3 96 106 107
3 107 97 96
3 84 108 109
3 109 85 84
3 110 111 112
3 112 113 110
3 110 113 114
3 114 115 116
3 114 116 110
3 117 118 119
3 119 112 111
3 119 111 117
3 120 121 122
3 122 123 120
3 124 125 126
3 126 127 124
3 128 129 130
3 130 131 128
3 129 132 133
3 133 130 129
3 134 135 136
3 136 137 134
3 138 120 123
3 123 139 138
3 140 141 142
3 142 143 140
3 144 145 146
3 146 147 144
3 148 149 150
3 151 152 153
3 152 151 154
3 154 155 152
3 156 157 158
3 159 160 161
3 162 163 164
3 164 165 162
3 154 166 155
3 167 168 160
3 160 159 167
3 167 169 168
3 149 170 150
3 149 171 170
3 157 172 158
3 157 173 172
3 174 175 176
3 176 177 174
3 178 179 180
3 180 181 178
3 182 183 184
3 184 185 182
3 183 186 187
3 187 184 183
3 188 189 190
3 190 191 188
3 192 174 177
3 177 193 192
