ply
format ascii 1.0
comment Created by Blender 2.79 (sub 0) - www.blender.org, source file: ''
element vertex 216
property float x
property float y
property float z
property float s
property float t
element face 192
property list uchar uint vertex_indices
end_header
-474.299988 -178.500015 54.699970 190.361298 -430.858398
-474.299988 -174.800003 53.299973 189.702103 -431.141602
-476.600006 -178.500015 49.799973 190.361298 -431.782196
-474.299988 -173.400009 49.799973 189.438507 -431.782196
-474.299988 -182.000015 53.299973 191.020493 -431.141602
-474.299988 -183.400024 49.799973 191.285202 -431.782196
-474.299988 -182.000015 46.299973 191.020493 -432.441406
-474.299988 -178.500000 44.899971 190.361298 -432.724609
-474.299988 -174.800003 46.299973 189.702103 -432.441406
-449.800018 -202.000015 54.699966 -445.071289 -430.858398
-453.299988 -202.000015 53.299969 -445.730499 -431.141602
-449.800018 -204.100006 49.799969 -445.071289 -431.782196
-455.000000 -202.000015 49.799969 -446.012695 -431.782196
-446.599976 -202.000015 53.299969 -444.430695 -431.141602
-445.000000 -202.000015 49.799969 -444.147491 -431.782196
-446.599976 -202.000015 46.299969 -444.430695 -432.441406
-449.800018 -202.000000 44.899967 -445.071289 -432.724609
-453.299988 -202.000015 46.299969 -445.730499 -432.441406
-449.800018 -202.000031 220.399979 -445.071289 -266.970703
-453.299988 -202.000031 218.999969 -445.730499 -267.234406
-449.800018 -204.100021 215.499969 -445.071289 -267.893585
-455.000000 -202.000031 215.499969 -446.012695 -267.893585
-446.599976 -202.000031 218.999969 -444.430695 -267.234406
-445.000000 -202.000031 215.499969 -444.147491 -267.893585
-446.599976 -202.000031 211.799957 -444.430695 -268.553711
-449.800018 -202.000031 210.399963 -445.071289 -268.817413
-453.299988 -202.000031 211.799957 -445.730499 -268.553711
-474.299988 -178.500031 220.399979 190.361298 -266.970703
-474.299988 -174.800018 218.999969 189.702103 -267.234406
-476.600006 -178.500031 215.499969 190.361298 -267.893585
-474.299988 -173.400024 215.499969 189.438507 -267.893585
-474.299988 -182.000031 218.999969 191.021500 -267.234406
-474.299988 -183.400040 215.499969 191.285202 -267.893585
-474.299988 -182.000031 211.799957 191.021500 -268.553711
-474.299988 -178.500031 210.399963 190.361298 -268.817413
-474.299988 -174.800018 211.799957 189.702103 -268.553711
-449.800018 -202.000076 424.499969 -445.071289 -64.825203
-453.299988 -202.000076 423.099976 -445.730499 -65.107399
-449.800018 -204.100067 419.599976 -445.071289 -65.766602
-455.000000 -202.000076 419.599976 -446.012695 -65.766602
-446.599976 -202.000076 423.099976 -444.430695 -65.107399
-445.000000 -202.000076 419.599976 -444.147491 -65.766602
-446.599976 -202.000076 416.099976 -444.430695 -66.407204
-449.800018 -202.000076 414.699982 -445.071289 -66.690399
-453.299988 -202.000076 416.099976 -445.730499 -66.407204
-474.299988 -178.500076 424.499969 190.361298 -64.825203
-474.299988 -174.800064 423.099976 189.702103 -65.107399
-476.600006 -178.500076 419.599976 190.361298 -65.766602
-474.299988 -173.400070 419.599976 189.438507 -65.766602
-474.299988 -182.000076 423.099976 191.021500 -65.107399
-474.299988 -183.400085 419.599976 191.285202 -65.766602
-474.299988 -182.000076 416.099976 191.021500 -66.407204
-474.299988 -178.500076 414.699982 190.361298 -66.690399
-474.299988 -174.800064 416.099976 189.702103 -66.407204
-474.299988 178.499985 54.700027 -163.102493 -430.858398
-476.600006 178.499985 49.800030 -163.102493 -431.782196
-474.299988 174.799973 53.300030 -162.443405 -431.141602
-474.299988 173.399979 49.800030 -162.179703 -431.782196
-474.299988 174.799973 46.300030 -162.443405 -432.441406
-474.299988 178.500000 44.900028 -163.102493 -432.724609
-474.299988 181.999985 46.300030 -163.762695 -432.441406
-474.299988 183.399994 49.800030 -164.026398 -431.782196
-474.299988 181.999985 53.300030 -163.762695 -431.141602
-449.800018 201.999985 54.700031 446.070312 -430.858398
-449.800018 204.099976 49.800034 446.070312 -431.782196
-453.299988 201.999985 53.300034 446.729492 -431.141602
-455.000000 201.999985 49.800034 447.012695 -431.782196
-453.299988 201.999985 46.300034 446.729492 -432.441406
-449.800018 202.000000 44.900032 446.070312 -432.724609
-446.599976 201.999985 46.300034 445.429688 -432.441406
-445.000000 201.999985 49.800034 445.146515 -431.782196
-446.599976 201.999985 53.300034 445.429688 -431.141602
-449.800018 201.999985 220.400040 446.070312 -266.970703
-449.800018 204.099976 215.500031 446.070312 -267.893585
-453.299988 201.999985 219.000031 446.729492 -267.234406
-455.000000 201.999985 215.500031 447.011688 -267.893585
-453.299988 201.999985 211.800018 446.729492 -268.553711
-449.800018 201.999985 210.400024 446.070312 -268.817413
-446.599976 201.999985 211.800018 445.429688 -268.553711
-445.000000 201.999985 215.500031 445.146515 -267.893585
-446.599976 201.999985 219.000031 445.429688 -267.234406
-474.299988 178.499969 220.400040 -163.102493 -266.970703
-476.600006 178.499969 215.500031 -163.102493 -267.894501
-474.299988 174.799957 219.000031 -162.443405 -267.234406
-474.299988 173.399963 215.500031 -162.179703 -267.894501
-474.299988 174.799957 211.800018 -162.443405 -268.553711
-474.299988 178.499969 210.400024 -163.102493 -268.817413
-474.299988 181.999969 211.800018 -163.762695 -268.553711
-474.299988 183.399979 215.500031 -164.026398 -267.894501
-474.299988 181.999969 219.000031 -163.762695 -267.234406
-449.800018 201.999939 424.500031 446.070312 -64.825203
-449.800018 204.099930 419.600037 446.070312 -65.766602
-453.299988 201.999939 423.100037 446.729492 -65.107399
-455.000000 201.999939 419.600037 447.012695 -65.766602
-453.299988 201.999939 416.100037 446.729492 -66.407204
-449.800018 201.999939 414.700043 446.070312 -66.690399
-446.599976 201.999939 416.100037 445.429688 -66.407204
-445.000000 201.999939 419.600037 445.146515 -65.766602
-446.599976 201.999939 423.100037 445.429688 -65.107399
-474.299988 178.499924 424.500031 -163.102493 -64.825203
-476.600006 178.499924 419.600037 -163.102493 -65.766602
-474.299988 174.799927 423.100037 -162.443405 -65.107399
-474.299988 173.399933 419.600037 -162.179703 -65.766602
-474.299988 174.799927 416.100037 -162.443405 -66.407204
-474.299988 178.499924 414.700043 -163.102493 -66.690399
-474.299988 181.999924 416.100037 -163.762695 -66.407204
-474.299988 183.399933 419.600037 -164.026398 -65.766602
-474.299988 181.999924 423.100037 -163.762695 -65.107399
474.299988 -178.500015 54.699970 -189.362305 -430.858398
476.600006 -178.500015 49.799973 -189.362305 -431.782196
474.299988 -174.800003 53.299973 -188.703094 -431.141602
474.299988 -173.400009 49.799973 -188.439499 -431.782196
474.299988 -174.800003 46.299973 -188.703094 -432.441406
474.299988 -178.500000 44.899971 -189.362305 -432.724609
474.299988 -182.000015 46.299973 -190.021500 -432.441406
474.299988 -183.400024 49.799973 -190.285202 -431.782196
474.299988 -182.000015 53.299973 -190.021500 -431.141602
449.800018 -202.000015 54.699966 446.070312 -430.858398
449.800018 -204.100006 49.799969 446.070312 -431.782196
453.299988 -202.000015 53.299969 446.729492 -431.141602
455.000000 -202.000015 49.799969 447.012695 -431.782196
453.299988 -202.000015 46.299969 446.729492 -432.441406
449.800018 -202.000000 44.899967 446.070312 -432.724609
446.599976 -202.000015 46.299969 445.429688 -432.441406
445.000000 -202.000015 49.799969 445.146515 -431.782196
446.599976 -202.000015 53.299969 445.429688 -431.141602
449.800018 -202.000031 220.399979 446.070312 -266.970703
449.800018 -204.100021 215.499969 446.070312 -267.893585
453.299988 -202.000031 218.999969 446.729492 -267.234406
455.000000 -202.000031 215.499969 447.011688 -267.893585
453.299988 -202.000031 211.799957 446.729492 -268.553711
449.800018 -202.000031 210.399963 446.070312 -268.817413
446.599976 -202.000031 211.799957 445.429688 -268.553711
445.000000 -202.000031 215.499969 445.146515 -267.893585
446.599976 -202.000031 218.999969 445.429688 -267.234406
474.299988 -178.500031 220.399979 -189.362305 -266.970703
476.600006 -178.500031 215.499969 -189.362305 -267.893585
474.299988 -174.800018 218.999969 -188.703094 -267.234406
474.299988 -173.400024 215.499969 -188.439499 -267.893585
474.299988 -174.800018 211.799957 -188.703094 -268.553711
474.299988 -178.500031 210.399963 -189.362305 -268.817413
474.299988 -182.000031 211.799957 -190.021500 -268.553711
474.299988 -183.400040 215.499969 -190.285202 -267.893585
474.299988 -182.000031 218.999969 -190.021500 -267.234406
449.800018 -202.000076 424.499969 446.070312 -64.825203
449.800018 -204.100067 419.599976 446.070312 -65.766602
453.299988 -202.000076 423.099976 446.729492 -65.107399
455.000000 -202.000076 419.599976 447.012695 -65.766602
453.299988 -202.000076 416.099976 446.729492 -66.407204
449.800018 -202.000076 414.699982 446.070312 -66.690399
446.599976 -202.000076 416.099976 445.429688 -66.407204
445.000000 -202.000076 419.599976 445.146515 -65.766602
446.599976 -202.000076 423.099976 445.429688 -65.107399
474.299988 -178.500076 424.499969 -189.362305 -64.825203
476.600006 -178.500076 419.599976 -189.362305 -65.766602
474.299988 -174.800064 423.099976 -188.703094 -65.107399
474.299988 -173.400070 419.599976 -188.438507 -65.766602
474.299988 -174.800064 416.099976 -188.703094 -66.407204
474.299988 -178.500076 414.699982 -189.362305 -66.690399
474.299988 -182.000076 416.099976 -190.021500 -66.407204
474.299988 -183.400085 419.599976 -190.285202 -65.766602
474.299988 -182.000076 423.099976 -190.021500 -65.107399
474.299988 178.499985 54.700027 164.102493 -430.858398
474.299988 174.799973 53.300030 163.442398 -431.141602
476.600006 178.499985 49.800030 164.102493 -431.782196
474.299988 173.399979 49.800030 163.178696 -431.782196
474.299988 181.999985 53.300030 164.761703 -431.141602
474.299988 183.399994 49.800030 165.025406 -431.782196
474.299988 181.999985 46.300030 164.761703 -432.441406
474.299988 178.500000 44.900028 164.102493 -432.724609
474.299988 174.799973 46.300030 163.442398 -432.441406
449.800018 201.999985 54.700031 -445.071289 -430.858398
453.299988 201.999985 53.300034 -445.730499 -431.141602
449.800018 204.099976 49.800034 -445.071289 -431.782196
455.000000 201.999985 49.800034 -446.012695 -431.782196
446.599976 201.999985 53.300034 -444.429688 -431.141602
445.000000 201.999985 49.800034 -444.147491 -431.782196
446.599976 201.999985 46.300034 -444.429688 -432.441406
449.800018 202.000000 44.900032 -445.071289 -432.724609
453.299988 201.999985 46.300034 -445.730499 -432.441406
449.800018 201.999985 220.400040 -445.071289 -266.970703
453.299988 201.999985 219.000031 -445.730499 -267.234406
449.800018 204.099976 215.500031 -445.071289 -267.894501
455.000000 201.999985 215.500031 -446.012695 -267.894501
446.599976 201.999985 219.000031 -444.430695 -267.234406
445.000000 201.999985 215.500031 -444.147491 -267.894501
446.599976 201.999985 211.800018 -444.430695 -268.553711
449.800018 201.999985 210.400024 -445.071289 -268.817413
453.299988 201.999985 211.800018 -445.730499 -268.553711
474.299988 178.499969 220.400040 164.102493 -266.970703
474.299988 174.799957 219.000031 163.442398 -267.234406
476.600006 178.499969 215.500031 164.102493 -267.894501
474.299988 173.399963 215.500031 163.178696 -267.894501
474.299988 181.999969 219.000031 164.761703 -267.234406
474.299988 183.399979 215.500031 165.025406 -267.894501
474.299988 181.999969 211.800018 164.761703 -268.553711
474.299988 178.499969 210.400024 164.102493 -268.817413
474.299988 174.799957 211.800018 163.442398 -268.553711
449.800018 201.999939 424.500031 -445.071289 -64.825203
453.299988 201.999939 423.100037 -445.730499 -65.107399
449.800018 204.099930 419.600037 -445.071289 -65.766602
455.000000 201.999939 419.600037 -446.012695 -65.766602
446.599976 201.999939 423.100037 -444.429688 -65.107399
445.000000 201.999939 419.600037 -444.147491 -65.766602
446.599976 201.999939 416.100037 -444.429688 -66.407204
449.800018 201.999939 414.700043 -445.071289 -66.690399
453.299988 201.999939 416.100037 -445.730499 -66.407204
474.299988 178.499924 424.500031 164.102493 -64.825203
474.299988 174.799927 423.100037 163.442398 -65.107399
476.600006 178.499924 419.600037 164.102493 -65.766602
474.299988 173.399933 419.600037 163.178696 -65.766602
474.299988 181.999924 423.100037 164.761703 -65.107399
474.299988 183.399933 419.600037 165.025406 -65.766602
474.299988 181.999924 416.100037 164.761703 -66.407204
474.299988 178.499924 414.700043 164.102493 -66.690399
474.299988 174.799927 416.100037 163.442398 -66.407204
3 0 1 2
3 2 1 3
3 0 2 4
3 4 2 5
3 5 2 6
3 6 2 7
3 7 2 8
3 8 2 3
3 9 10 11
3 11 10 12
3 9 11 13
3 13 11 14
3 14 11 15
3 15 11 16
3 16 11 17
3 17 11 12
3 18 19 20
3 20 19 21
3 18 20 22
3 22 20 23
3 23 20 24
3 24 20 25
3 25 20 26
3 26 20 21
3 27 28 29
3 29 28 30
3 27 29 31
3 31 29 32
3 32 29 33
3 33 29 34
3 34 29 35
3 35 29 30
3 36 37 38
3 38 37 39
3 36 38 40
3 40 38 41
3 41 38 42
3 42 38 43
3 43 38 44
3 44 38 39
3 45 46 47
3 47 46 48
3 45 47 49
3 49 47 50
3 50 47 51
3 51 47 52
3 52 47 53
3 53 47 48
3 54 55 56
3 56 55 57
3 57 55 58
3 58 55 59
3 59 55 60
3 60 55 61
3 61 55 62
3 62 55 54
3 63 64 65
3 65 64 66
3 66 64 67
3 67 64 68
3 68 64 69
3 69 64 70
3 70 64 71
3 71 64 63
3 72 73 74
3 74 73 75
3 75 73 76
3 76 73 77
3 77 73 78
3 78 73 79
3 79 73 80
3 80 73 72
3 81 82 83
3 83 82 84
3 84 82 85
3 85 82 86
3 86 82 87
3 87 82 88
3 88 82 89
3 89 82 81
3 90 91 92
3 92 91 93
3 93 91 94
3 94 91 95
3 95 91 96
3 96 91 97
3 97 91 98
3 98 91 90
3 99 100 101
3 101 100 102
3 102 100 103
3 103 100 104
3 104 100 105
3 105 100 106
3 106 100 107
3 107 100 99
3 108 109 110
3 110 109 111
3 111 109 112
3 112 109 113
3 113 109 114
3 114 109 115
3 115 109 116
3 116 109 108
3 117 118 119
3 119 118 120
3 120 118 121
3 121 118 122
3 122 118 123
3 123 118 124
3 124 118 125
3 125 118 117
3 126 127 128
3 128 127 129
3 129 127 130
3 130 127 131
3 131 127 132
3 132 127 133
3 133 127 134
3 134 127 126
3 135 136 137
3 137 136 138
3 138 136 139
3 139 136 140
3 140 136 141
3 141 136 142
3 142 136 143
3 143 136 135
3 144 145 146
3 146 145 147
3 147 145 148
3 148 145 149
3 149 145 150
3 150 145 151
3 151 145 152
3 152 145 144
3 153 154 155
3 155 154 156
3 156 154 157
3 157 154 158
3 158 154 159
3 159 154 160
3 160 154 161
3 161 154 153
3 162 163 164
3 164 163 165
3 162 164 166
3 166 164 167
3 167 164 168
3 168 164 169
3 169 164 170
3 170 164 165
3 171 172 173
3 173 172 174
3 171 173 175
3 175 173 176
3 176 173 177
3 177 173 178
3 178 173 179
3 179 173 174
3 180 181 182
3 182 181 183
3 180 182 184
3 184 182 185
3 185 182 186
3 186 182 187
3 187 182 188
3 188 182 183
3 189 190 191
3 191 190 192
3 189 191 193
3 193 191 194
3 194 191 195
3 195 191 196
3 196 191 197
3 197 191 192
3 198 199 200
3 200 199 201
3 198 200 202
3 202 200 203
3 203 200 204
3 204 200 205
3 205 200 206
3 206 200 201
3 207 208 209
3 209 208 210
3 207 209 211
3 211 209 212
3 212 209 213
3 213 209 214
3 214 209 215
3 215 209 210
