ply
format ascii 1.0
comment Created by Blender 2.79 (sub 0) - www.blender.org, source file: ''
element vertex 426
property float x
property float y
property float z
property float s
property float t
element face 328
property list uchar uint vertex_indices
end_header
465.899994 -181.799988 11.899970 -192.827103 -474.291992
464.300018 -175.899994 -0.000029 -191.741196 -476.446289
464.300018 -175.899994 11.899971 -191.741196 -474.291992
465.899994 -181.799988 -0.000030 -192.827103 -476.446289
464.300018 -187.800003 11.899969 -193.914093 -474.291992
464.300018 -187.800003 -0.000031 -193.914093 -476.446289
464.300018 -175.899994 11.899971 -451.122986 -474.213898
460.000000 -171.600006 -0.000028 -450.268585 -476.525391
460.000000 -171.600006 11.899972 -450.268585 -474.213898
454.000000 -170.000000 -0.000028 -449.103485 -476.525391
464.300018 -175.899994 -0.000029 -451.122986 -476.525391
454.000000 -170.000000 11.899972 -449.103485 -474.213898
448.100006 -171.600006 -0.000028 -447.937500 -476.525391
448.100006 -171.600006 11.899972 -447.937500 -474.213898
443.500000 -175.899994 11.899971 -447.083008 -474.213898
443.500000 -175.899994 -0.000029 -447.083008 -476.525391
443.500000 -175.899994 11.899971 192.741196 -474.291992
441.900024 -181.799988 -0.000030 193.827103 -476.446289
441.900024 -181.799988 11.899970 193.827103 -474.291992
443.500000 -187.800003 -0.000031 194.913101 -476.446289
443.500000 -175.899994 -0.000029 192.741196 -476.446289
443.500000 -187.800003 11.899969 194.913101 -474.291992
443.500000 -187.800003 11.899969 448.079102 -474.211914
448.100006 -192.399994 -0.000031 448.935486 -476.527313
448.100006 -192.399994 11.899968 448.935486 -474.211914
454.000000 -194.000000 -0.000032 450.102509 -476.527313
443.500000 -187.800003 -0.000031 448.079102 -476.527313
454.000000 -194.000000 11.899968 450.102509 -474.211914
460.000000 -192.399994 -0.000031 451.270508 -476.527313
460.000000 -192.399994 11.899968 451.270508 -474.211914
464.300018 -187.800003 -0.000031 452.126007 -476.527313
464.300018 -187.800003 11.899969 452.126007 -474.211914
460.000000 -171.600006 -0.000028 -450.170898 -186.335907
454.000000 -194.000000 -0.000032 -449.103485 -190.304703
448.100006 -171.600006 -0.000028 -448.035187 -186.335907
448.100006 -192.399994 -0.000031 -448.035187 -190.019501
454.000000 -170.000000 -0.000028 -449.103485 -186.033203
460.000000 -192.399994 -0.000031 -450.170898 -190.019501
464.300018 -187.800003 -0.000031 -450.954102 -189.236298
465.899994 -181.799988 -0.000030 -451.239288 -188.168900
464.300018 -175.899994 -0.000029 -450.954102 -187.100601
443.500000 -187.800003 -0.000031 -447.252014 -189.236298
441.900024 -181.799988 -0.000030 -446.967804 -188.168900
443.500000 -175.899994 -0.000029 -447.252014 -187.100601
468.500000 -181.799988 11.899970 -451.665985 -188.175797
464.300018 -175.899994 11.899971 -450.954102 -187.108398
466.399994 -174.799988 11.899971 -451.328094 -186.894501
461.100006 -169.500000 11.899972 -450.384796 -185.968796
460.000000 -171.600006 11.899972 -450.170898 -186.342804
465.899994 -181.799988 11.899970 -451.239288 -188.175797
464.300018 -187.800003 11.899969 -450.954102 -189.243195
466.399994 -189.199997 11.899969 -451.328094 -189.474594
454.000000 -170.000000 11.899972 -449.103485 -186.039993
460.000000 -192.399994 11.899968 -450.170898 -190.026398
461.100006 -194.399994 11.899968 -450.384796 -190.400406
454.000000 -167.400009 11.899973 -449.103485 -185.613297
446.700012 -169.500000 11.899972 -447.821289 -185.968796
448.100006 -171.600006 11.899972 -448.035187 -186.342804
454.000000 -194.000000 11.899968 -449.103485 -190.311493
454.000000 -196.500000 11.899968 -449.103485 -190.755905
443.500000 -175.899994 11.899971 -447.252014 -187.108398
446.700012 -194.399994 11.899968 -447.821289 -190.400406
441.500000 -174.799988 11.899971 -446.878906 -186.894501
439.599976 -181.799988 11.899970 -446.540009 -188.175797
441.900024 -181.799988 11.899970 -446.967804 -188.175797
448.100006 -192.399994 11.899968 -448.035187 -190.026398
441.500000 -189.199997 11.899969 -446.878906 -189.474594
443.500000 -187.800003 11.899969 -447.252014 -189.243195
468.500000 -181.799988 16.199970 -192.850601 -467.083008
466.399994 -174.799988 11.899971 -191.547897 -467.904297
466.399994 -174.799988 16.199972 -191.547897 -467.083008
468.500000 -181.799988 11.899970 -192.850601 -467.904297
466.399994 -189.199997 16.199968 -194.171906 -467.083008
468.500000 -181.799988 11.899970 -192.850601 -467.904297
466.399994 -189.199997 16.199968 -194.171906 -467.083008
466.399994 -189.199997 11.899969 -194.171906 -467.904297
466.399994 -174.799988 16.199972 -451.532196 -467.207001
461.100006 -169.500000 11.899972 -450.502014 -468.088898
461.100006 -169.500000 16.199972 -450.502014 -467.207001
454.000000 -167.400009 11.899973 -449.103485 -468.088898
461.100006 -169.500000 11.899972 -450.502014 -468.088898
466.399994 -174.799988 16.199972 -451.532196 -467.207001
466.399994 -174.799988 11.899971 -451.532196 -468.088898
454.000000 -167.400009 16.199972 -449.103485 -467.207001
446.700012 -169.500000 11.899972 -447.704102 -468.088898
446.700012 -169.500000 16.199972 -447.704102 -467.207001
441.500000 -174.799988 11.899971 -446.674805 -468.088898
441.500000 -174.799988 16.199972 -446.674805 -467.207001
439.599976 -181.799988 16.199970 193.850601 -467.083008
441.500000 -174.799988 11.899971 192.547897 -467.904297
439.599976 -181.799988 11.899970 193.850601 -467.904297
441.500000 -189.199997 16.199968 195.170898 -467.083008
441.500000 -189.199997 11.899969 195.170898 -467.904297
441.500000 -174.799988 16.199972 192.547897 -467.083008
446.700012 -194.399994 16.199968 448.704102 -467.207001
441.500000 -189.199997 11.899969 447.673798 -468.088898
446.700012 -194.399994 11.899968 448.704102 -468.088898
454.000000 -196.500000 11.899968 450.102509 -468.088898
441.500000 -189.199997 16.199968 447.673798 -467.207001
454.000000 -196.500000 16.199968 450.102509 -467.207001
461.100006 -194.399994 11.899968 451.502014 -468.088898
461.100006 -194.399994 16.199968 451.502014 -467.207001
466.399994 -189.199997 11.899969 452.531311 -468.088898
466.399994 -189.199997 16.199968 452.531311 -467.207001
465.899994 181.399994 11.900030 166.973602 -474.291992
464.300018 187.300003 0.000031 168.059601 -476.446289
464.300018 187.300003 11.900031 168.059601 -474.291992
465.899994 181.399994 0.000030 166.973602 -476.446289
464.300018 175.199997 11.900029 165.887695 -474.291992
464.300018 175.199997 0.000029 165.887695 -476.446289
464.300018 187.300003 11.900031 -451.127014 -474.211914
460.000000 191.699997 0.000031 -450.270508 -476.527313
460.000000 191.699997 11.900032 -450.270508 -474.211914
454.000000 193.299988 0.000031 -449.103485 -476.527313
464.300018 187.300003 0.000031 -451.127014 -476.527313
454.000000 193.299988 11.900032 -449.103485 -474.211914
448.100006 191.699997 0.000031 -447.935486 -476.527313
448.100006 191.699997 11.900032 -447.935486 -474.211914
443.500000 187.300003 11.900031 -447.080109 -474.211914
443.500000 187.300003 0.000031 -447.080109 -476.527313
443.500000 187.300003 11.900031 -167.060501 -474.291992
441.900024 181.399994 0.000030 -165.973602 -476.446289
441.900024 181.399994 11.900030 -165.973602 -474.291992
443.500000 175.199997 0.000029 -164.887695 -476.446289
443.500000 187.300003 0.000031 -167.060501 -476.446289
443.500000 175.199997 11.900029 -164.887695 -474.291992
443.500000 175.199997 11.900029 448.079102 -474.211914
448.100006 170.900009 0.000028 448.935486 -476.527313
448.100006 170.900009 11.900028 448.935486 -474.211914
454.000000 169.300003 0.000028 450.102509 -476.527313
443.500000 175.199997 0.000029 448.079102 -476.527313
454.000000 169.300003 11.900028 450.102509 -474.211914
460.000000 170.900009 0.000028 451.270508 -476.527313
460.000000 170.900009 11.900028 451.270508 -474.211914
464.300018 175.199997 0.000029 452.127014 -476.527313
464.300018 175.199997 11.900029 452.127014 -474.211914
454.000000 193.299988 0.000031 -449.103485 173.781296
454.000000 169.300003 0.000028 -449.103485 169.509796
441.900024 181.399994 0.000030 -446.967804 171.645493
443.500000 175.199997 0.000029 -447.252899 170.578094
448.100006 170.900009 0.000028 -448.035187 169.794907
443.500000 187.300003 0.000031 -447.252899 172.713898
465.899994 181.399994 0.000030 -451.239288 171.645493
464.300018 187.300003 0.000031 -450.954102 172.713898
460.000000 191.699997 0.000031 -450.170898 173.497101
448.100006 191.699997 0.000031 -448.035187 173.497101
464.300018 175.199997 0.000029 -450.954102 170.578094
460.000000 170.900009 0.000028 -450.170898 169.794907
468.500000 181.399994 11.900030 -451.665985 171.645493
464.300018 187.300003 11.900031 -450.954102 172.713898
466.399994 188.500000 11.900031 -451.328094 172.926804
460.000000 191.699997 11.900032 -450.170898 173.496094
465.899994 181.399994 11.900030 -451.239288 171.645493
464.300018 175.199997 11.900029 -450.954102 170.578094
466.399994 174.099991 11.900028 -451.328094 170.364304
461.100006 193.699997 11.900032 -450.384796 173.870102
454.000000 195.800003 11.900032 -449.103485 174.207993
454.000000 193.299988 11.900032 -449.103485 173.781296
460.000000 170.900009 11.900028 -450.170898 169.794907
461.100006 168.800003 11.900028 -450.384796 169.420898
448.100006 191.699997 11.900032 -448.035187 173.496094
454.000000 167.000000 11.900027 -449.103485 169.082993
446.700012 193.699997 11.900032 -447.822296 173.870102
441.500000 188.500000 11.900031 -446.878906 172.926804
443.500000 187.300003 11.900031 -447.252899 172.713898
454.000000 169.300003 11.900028 -449.103485 169.509796
448.100006 170.900009 11.900028 -448.035187 169.794907
446.700012 168.800003 11.900028 -447.822296 169.420898
439.599976 181.399994 11.900030 -446.540985 171.645493
441.900024 181.399994 11.900030 -446.967804 171.645493
441.500000 174.099991 11.900028 -446.878906 170.364304
443.500000 175.199997 11.900029 -447.252899 170.578094
468.500000 181.399994 16.200029 166.973602 -467.206085
466.399994 188.500000 11.900031 168.375000 -468.089813
466.399994 188.500000 16.200029 168.375000 -467.206085
461.100006 193.699997 11.900032 169.406296 -468.089813
468.500000 181.399994 11.900030 166.973602 -468.089813
466.399994 174.099991 16.200027 165.572296 -467.206085
461.100006 193.699997 16.200031 169.406296 -467.206085
466.399994 174.099991 11.900028 165.572296 -468.089813
461.100006 168.800003 16.200027 164.541000 -467.206085
466.399994 174.099991 11.900028 165.572296 -468.089813
461.100006 168.800003 16.200027 164.541000 -467.206085
461.100006 168.800003 11.900028 164.541000 -468.089813
461.100006 193.699997 16.200031 -447.892609 -467.164093
454.000000 195.800003 11.900032 -446.526398 -468.025391
454.000000 195.800003 16.200031 -446.526398 -467.164093
446.700012 193.699997 11.900032 -445.160187 -468.025391
454.000000 195.800003 11.900032 -446.526398 -468.025391
461.100006 193.699997 16.200031 -447.892609 -467.164093
461.100006 193.699997 11.900032 -447.892609 -468.025391
446.700012 193.699997 16.200031 -445.160187 -467.164093
441.500000 188.500000 16.200029 -444.154297 -467.164093
441.500000 188.500000 11.900031 -444.154297 -468.025391
441.500000 188.500000 16.200029 -167.277298 -467.083008
439.599976 181.399994 11.900030 -165.973602 -467.904297
439.599976 181.399994 16.200029 -165.973602 -467.083008
441.500000 174.099991 11.900028 -164.670898 -467.904297
439.599976 181.399994 11.900030 -165.973602 -467.904297
441.500000 188.500000 16.200029 -167.277298 -467.083008
441.500000 188.500000 11.900031 -167.277298 -467.904297
441.500000 174.099991 16.200027 -164.670898 -467.083008
441.500000 174.099991 16.200027 445.154297 -467.164093
446.700012 168.800003 11.900028 446.160187 -468.025391
446.700012 168.800003 16.200027 446.160187 -467.164093
454.000000 167.000000 16.200027 447.525391 -467.164093
454.000000 167.000000 11.900027 447.525391 -468.025391
446.700012 168.800003 11.900028 446.160187 -468.025391
441.500000 174.099991 16.200027 445.154297 -467.164093
441.500000 174.099991 11.900028 445.154297 -468.025391
461.100006 168.800003 11.900028 448.891602 -468.025391
461.100006 168.800003 16.200027 448.891602 -467.164093
-441.900024 -181.799988 11.899970 -192.827103 -474.291992
-443.500000 -175.899994 -0.000029 -191.741196 -476.446289
-443.500000 -175.899994 11.899971 -191.741196 -474.291992
-441.900024 -181.799988 -0.000030 -192.827103 -476.446289
-443.500000 -187.800003 11.899969 -193.914093 -474.291992
-443.500000 -187.800003 -0.000031 -193.914093 -476.446289
-443.500000 -175.899994 11.899971 447.984406 -474.213898
-447.899994 -171.600006 -0.000028 448.838898 -476.525391
-447.899994 -171.600006 11.899972 448.838898 -474.213898
-453.799988 -170.000000 -0.000028 450.003906 -476.525391
-443.500000 -175.899994 -0.000029 447.984406 -476.525391
-453.799988 -170.000000 11.899972 450.003906 -474.213898
-460.000000 -171.600006 -0.000028 451.169891 -476.525391
-460.000000 -171.600006 11.899972 451.169891 -474.213898
-464.300018 -175.899994 11.899971 452.024414 -474.213898
-464.300018 -175.899994 -0.000029 452.024414 -476.525391
-464.300018 -175.899994 11.899971 192.740204 -474.291992
-465.899994 -181.799988 -0.000030 193.827103 -476.446289
-465.899994 -181.799988 11.899970 193.827103 -474.291992
-464.300018 -187.800003 -0.000031 194.913101 -476.446289
-464.300018 -175.899994 -0.000029 192.740204 -476.446289
-464.300018 -187.800003 11.899969 194.913101 -474.291992
-460.000000 -192.399994 11.899968 -450.171906 -474.211914
-464.300018 -187.800003 -0.000031 -451.028290 -476.527313
-460.000000 -192.399994 -0.000031 -450.171906 -476.527313
-453.799988 -194.000000 -0.000032 -449.004913 -476.527313
-464.300018 -187.800003 11.899969 -451.028290 -474.211914
-453.799988 -194.000000 11.899968 -449.004913 -474.211914
-447.899994 -192.399994 -0.000031 -447.836914 -476.527313
-447.899994 -192.399994 11.899968 -447.836914 -474.211914
-443.500000 -187.800003 -0.000031 -446.980499 -476.527313
-443.500000 -187.800003 11.899969 -446.980499 -474.211914
-447.899994 -171.600006 -0.000028 448.936493 -186.335907
-453.799988 -194.000000 -0.000032 450.003906 -190.304703
-460.000000 -171.600006 -0.000028 451.072296 -186.335907
-460.000000 -192.399994 -0.000031 451.072296 -190.019501
-453.799988 -170.000000 -0.000028 450.003906 -186.033203
-447.899994 -192.399994 -0.000031 448.936493 -190.019501
-443.500000 -187.800003 -0.000031 448.153290 -189.236298
-441.900024 -181.799988 -0.000030 447.868195 -188.168900
-443.500000 -175.899994 -0.000029 448.153290 -187.100601
-464.300018 -187.800003 -0.000031 451.855499 -189.236298
-465.899994 -181.799988 -0.000030 452.139587 -188.168900
-464.300018 -175.899994 -0.000029 451.855499 -187.100601
-439.399994 -181.799988 11.899970 447.441406 -188.175797
-443.500000 -175.899994 11.899971 448.153290 -187.107407
-441.500000 -174.799988 11.899971 447.779297 -186.894501
-446.700012 -169.500000 11.899972 448.722687 -185.968796
-447.899994 -171.600006 11.899972 448.936493 -186.342804
-441.900024 -181.799988 11.899970 447.868195 -188.175797
-443.500000 -187.800003 11.899969 448.153290 -189.243195
-441.500000 -189.199997 11.899969 447.779297 -189.474594
-453.799988 -170.000000 11.899972 450.003906 -186.039993
-447.899994 -192.399994 11.899968 448.936493 -190.026398
-446.700012 -194.399994 11.899968 448.722687 -190.400406
-453.799988 -167.400009 11.899973 450.003906 -185.612305
-461.100006 -169.500000 11.899972 451.286102 -185.968796
-460.000000 -171.600006 11.899972 451.072296 -186.342804
-453.799988 -194.000000 11.899968 450.003906 -190.311493
-453.799988 -196.500000 11.899968 450.003906 -190.755905
-464.300018 -175.899994 11.899971 451.855499 -187.107407
-461.100006 -194.399994 11.899968 451.286102 -190.400406
-466.399994 -174.799988 11.899971 452.228485 -186.894501
-468.200012 -181.799988 11.899970 452.567413 -188.175797
-465.899994 -181.799988 11.899970 452.139587 -188.175797
-460.000000 -192.399994 11.899968 451.072296 -190.026398
-466.399994 -189.199997 11.899969 452.228485 -189.474594
-464.300018 -187.800003 11.899969 451.855499 -189.243195
-439.399994 -181.799988 16.199970 -192.850601 -467.165985
-441.500000 -174.799988 11.899971 -191.547897 -467.959015
-441.500000 -174.799988 16.199972 -191.547897 -467.165985
-439.399994 -181.799988 11.899970 -192.850601 -467.959015
-441.500000 -189.199997 16.199968 -194.171906 -467.165985
-439.399994 -181.799988 11.899970 -192.850601 -467.959015
-441.500000 -189.199997 16.199968 -194.171906 -467.165985
-441.500000 -189.199997 11.899969 -194.171906 -467.959015
-441.500000 -174.799988 16.199972 447.575195 -467.286102
-446.700012 -169.500000 11.899972 448.605499 -468.137695
-446.700012 -169.500000 16.199972 448.605499 -467.286102
-453.799988 -167.400009 11.899973 450.003906 -468.137695
-446.700012 -169.500000 11.899972 448.605499 -468.137695
-441.500000 -174.799988 16.199972 447.575195 -467.286102
-441.500000 -174.799988 11.899971 447.575195 -468.137695
-453.799988 -167.400009 16.199972 450.003906 -467.286102
-461.100006 -169.500000 16.199972 451.403290 -467.286102
-461.100006 -169.500000 11.899972 451.403290 -468.137695
-466.399994 -174.799988 11.899971 452.432587 -468.137695
-466.399994 -174.799988 16.199972 452.432587 -467.286102
-466.399994 -174.799988 16.199972 192.546906 -467.165985
-468.200012 -181.799988 11.899970 193.849594 -467.959015
-468.200012 -181.799988 16.199970 193.849594 -467.165985
-466.399994 -189.199997 11.899969 195.170898 -467.959015
-468.200012 -181.799988 11.899970 193.849594 -467.959015
-466.399994 -174.799988 16.199972 192.546906 -467.165985
-466.399994 -174.799988 11.899971 192.546906 -467.959015
-466.399994 -189.199997 16.199968 195.170898 -467.165985
-466.399994 -189.199997 16.199968 -451.433594 -467.286102
-461.100006 -194.399994 11.899968 -450.403290 -468.137695
-461.100006 -194.399994 16.199968 -450.403290 -467.286102
-453.799988 -196.500000 11.899968 -449.004913 -468.137695
-461.100006 -194.399994 11.899968 -450.403290 -468.137695
-466.399994 -189.199997 16.199968 -451.433594 -467.286102
-466.399994 -189.199997 11.899969 -451.433594 -468.137695
-453.799988 -196.500000 16.199968 -449.004913 -467.286102
-446.700012 -194.399994 11.899968 -447.605499 -468.137695
-446.700012 -194.399994 16.199968 -447.605499 -467.286102
-441.500000 -189.199997 11.899969 -446.576202 -468.137695
-441.500000 -189.199997 16.199968 -446.576202 -467.286102
-441.900024 181.399994 11.900030 166.973602 -474.291992
-443.500000 187.300003 0.000031 168.060501 -476.446289
-443.500000 187.300003 11.900031 168.060501 -474.291992
-441.900024 181.399994 0.000030 166.973602 -476.446289
-443.500000 175.199997 11.900029 165.887695 -474.291992
-443.500000 175.199997 0.000029 165.887695 -476.446289
-443.500000 187.300003 11.900031 447.980499 -474.211914
-447.899994 191.699997 0.000031 448.835907 -476.527313
-447.899994 191.699997 11.900032 448.835907 -474.211914
-453.799988 193.299988 0.000031 450.003906 -476.527313
-443.500000 187.300003 0.000031 447.980499 -476.527313
-453.799988 193.299988 11.900032 450.003906 -474.211914
-460.000000 191.699997 0.000031 451.170898 -476.527313
-460.000000 191.699997 11.900032 451.170898 -474.211914
-464.300018 187.300003 11.900031 452.027313 -474.211914
-464.300018 187.300003 0.000031 452.027313 -476.527313
-464.300018 187.300003 11.900031 -167.060501 -474.291992
-465.899994 181.399994 0.000030 -165.973602 -476.446289
-465.899994 181.399994 11.900030 -165.973602 -474.291992
-464.300018 175.199997 0.000029 -164.887695 -476.446289
-464.300018 187.300003 0.000031 -167.060501 -476.446289
-464.300018 175.199997 11.900029 -164.887695 -474.291992
-460.000000 170.900009 11.900028 -450.171906 -474.211914
-464.300018 175.199997 0.000029 -451.027313 -476.527313
-460.000000 170.900009 0.000028 -450.171906 -476.527313
-453.799988 169.300003 0.000028 -449.003906 -476.527313
-464.300018 175.199997 11.900029 -451.027313 -474.211914
-453.799988 169.300003 11.900028 -449.003906 -474.211914
-447.899994 170.900009 0.000028 -447.836914 -476.527313
-447.899994 170.900009 11.900028 -447.836914 -474.211914
-443.500000 175.199997 0.000029 -446.980499 -476.527313
-443.500000 175.199997 11.900029 -446.980499 -474.211914
-453.799988 193.299988 0.000031 450.003906 173.781296
-453.799988 169.300003 0.000028 450.003906 169.509796
-465.899994 181.399994 0.000030 452.139587 171.645493
-464.300018 175.199997 0.000029 451.854492 170.578094
-460.000000 170.900009 0.000028 451.071289 169.794907
-464.300018 187.300003 0.000031 451.854492 172.713898
-441.900024 181.399994 0.000030 447.868195 171.645493
-443.500000 187.300003 0.000031 448.153290 172.713898
-447.899994 191.699997 0.000031 448.935486 173.497101
-460.000000 191.699997 0.000031 451.071289 173.497101
-443.500000 175.199997 0.000029 448.153290 170.578094
-447.899994 170.900009 0.000028 448.935486 169.794907
-439.399994 181.399994 11.900030 447.441406 171.645493
-443.500000 187.300003 11.900031 448.152313 172.713898
-441.500000 188.500000 11.900031 447.779297 172.926804
-446.700012 193.699997 11.900032 448.722687 173.870102
-447.899994 191.699997 11.900032 448.935486 173.497101
-441.900024 181.399994 11.900030 447.868195 171.645493
-443.500000 175.199997 11.900029 448.152313 170.578094
-441.500000 174.099991 11.900028 447.779297 170.364304
-453.799988 195.800003 11.900032 450.003906 174.209000
-453.799988 193.299988 11.900032 450.003906 173.781296
-446.700012 168.800003 11.900028 448.722687 169.420898
-460.000000 191.699997 11.900032 451.071289 173.497101
-447.899994 170.900009 11.900028 448.935486 169.794907
-453.799988 167.000000 11.900027 450.003906 169.082993
-461.100006 193.699997 11.900032 451.285187 173.870102
-466.399994 188.500000 11.900031 452.228485 172.926804
-464.300018 187.300003 11.900031 451.854492 172.713898
-453.799988 169.300003 11.900028 450.003906 169.509796
-460.000000 170.900009 11.900028 451.071289 169.794907
-461.100006 168.800003 11.900028 451.285187 169.420898
-468.200012 181.399994 11.900030 452.566406 171.645493
-465.899994 181.399994 11.900030 452.139587 171.645493
-466.399994 174.099991 11.900028 452.228485 170.364304
-464.300018 175.199997 11.900029 451.854492 170.578094
-439.399994 181.399994 16.200029 166.973602 -467.165985
-441.500000 188.500000 11.900031 168.276398 -467.959015
-441.500000 188.500000 16.200029 168.276398 -467.165985
-439.399994 181.399994 11.900030 166.973602 -467.959015
-441.500000 174.099991 16.200027 165.670898 -467.165985
-439.399994 181.399994 11.900030 166.973602 -467.959015
-441.500000 174.099991 16.200027 165.670898 -467.165985
-441.500000 174.099991 11.900028 165.670898 -467.959015
-441.500000 188.500000 16.200029 447.571289 -467.285187
-446.700012 193.699997 11.900032 448.602509 -468.137695
-446.700012 193.699997 16.200031 448.602509 -467.285187
-453.799988 195.800003 11.900032 450.003906 -468.137695
-446.700012 193.699997 11.900032 448.602509 -468.137695
-441.500000 188.500000 16.200029 447.571289 -467.285187
-441.500000 188.500000 11.900031 447.571289 -468.137695
-453.799988 195.800003 16.200031 450.003906 -467.285187
-461.100006 193.699997 11.900032 451.404297 -468.137695
-461.100006 193.699997 16.200031 451.404297 -467.285187
-466.399994 188.500000 16.200029 452.435486 -467.285187
-466.399994 188.500000 11.900031 452.435486 -468.137695
-468.200012 181.399994 16.200029 -165.973602 -467.165985
-466.399994 188.500000 11.900031 -167.277298 -467.959015
-468.200012 181.399994 11.900030 -165.973602 -467.959015
-466.399994 174.099991 16.200027 -164.670898 -467.165985
-466.399994 174.099991 11.900028 -164.670898 -467.959015
-466.399994 188.500000 16.200029 -167.277298 -467.165985
-466.399994 174.099991 16.200027 -451.436493 -467.285187
-461.100006 168.800003 11.900028 -450.405304 -468.137695
-461.100006 168.800003 16.200027 -450.405304 -467.285187
-453.799988 167.000000 11.900027 -449.003906 -468.137695
-461.100006 168.800003 11.900028 -450.405304 -468.137695
-466.399994 174.099991 16.200027 -451.436493 -467.285187
-466.399994 174.099991 11.900028 -451.436493 -468.137695
-453.799988 167.000000 16.200027 -449.003906 -467.285187
-446.700012 168.800003 11.900028 -447.603485 -468.137695
-446.700012 168.800003 16.200027 -447.603485 -467.285187
-441.500000 174.099991 11.900028 -446.572296 -468.137695
-441.500000 174.099991 16.200027 -446.572296 -467.285187
3 0 1 2
3 1 0 3
3 3 0 4
3 3 4 5
3 6 7 8
3 8 7 9
3 7 6 10
3 8 9 11
3 11 9 12
3 11 12 13
3 13 12 14
3 14 12 15
3 16 17 18
3 18 17 19
3 17 16 20
3 18 19 21
3 22 23 24
3 24 23 25
3 23 22 26
3 24 25 27
3 27 25 28
3 27 28 29
3 29 28 30
3 29 30 31
3 32 33 34
3 34 33 35
3 32 34 36
3 33 32 37
3 37 32 38
3 38 32 39
3 39 32 40
3 34 35 41
3 34 41 42
3 34 42 43
3 44 45 46
3 46 45 47
3 47 45 48
3 45 44 49
3 49 44 50
3 50 44 51
3 47 48 52
3 50 51 53
3 53 51 54
3 47 52 55
3 55 52 56
3 56 52 57
3 53 54 58
3 58 54 59
3 56 57 60
3 58 59 61
3 56 60 62
3 62 60 63
3 63 60 64
3 58 61 65
3 65 61 66
3 63 64 67
3 63 67 66
3 66 67 65
3 68 69 70
3 69 68 71
3 71 68 72
3 73 74 75
3 76 77 78
3 78 77 79
3 80 81 82
3 78 79 83
3 83 79 84
3 83 84 85
3 85 84 86
3 85 86 87
3 88 89 90
3 88 90 91
3 91 90 92
3 89 88 93
3 94 95 96
3 94 96 97
3 95 94 98
3 94 97 99
3 99 97 100
3 99 100 101
3 101 100 102
3 101 102 103
3 104 105 106
3 105 104 107
3 107 104 108
3 107 108 109
3 110 111 112
3 112 111 113
3 111 110 114
3 112 113 115
3 115 113 116
3 115 116 117
3 117 116 118
3 118 116 119
3 120 121 122
3 122 121 123
3 121 120 124
3 122 123 125
3 126 127 128
3 128 127 129
3 127 126 130
3 128 129 131
3 131 129 132
3 131 132 133
3 133 132 134
3 133 134 135
3 136 137 138
3 138 137 139
3 139 137 140
3 136 138 141
3 137 136 142
3 142 136 143
3 143 136 144
3 136 141 145
3 137 142 146
3 137 146 147
3 148 149 150
3 150 149 151
3 149 148 152
3 152 148 153
3 153 148 154
3 150 151 155
3 155 151 156
3 156 151 157
3 153 154 158
3 158 154 159
3 156 157 160
3 158 159 161
3 156 160 162
3 162 160 163
3 163 160 164
3 158 161 165
3 165 161 166
3 166 161 167
3 163 164 168
3 168 164 169
3 166 167 170
3 168 169 171
3 168 171 170
3 170 171 166
3 172 173 174
3 174 173 175
3 173 172 176
3 176 172 177
3 174 175 178
3 176 177 179
3 179 177 180
3 181 182 183
3 184 185 186
3 186 185 187
3 188 189 190
3 186 187 191
3 191 187 192
3 192 187 193
3 194 195 196
3 196 195 197
3 198 199 200
3 196 197 201
3 202 203 204
3 204 203 205
3 205 203 206
3 207 208 209
3 205 206 210
3 205 210 211
3 212 213 214
3 213 212 215
3 215 212 216
3 215 216 217
3 218 219 220
3 220 219 221
3 219 218 222
3 220 221 223
3 223 221 224
3 223 224 225
3 225 224 226
3 226 224 227
3 228 229 230
3 230 229 231
3 229 228 232
3 230 231 233
3 234 235 236
3 234 236 237
3 235 234 238
3 234 237 239
3 239 237 240
3 239 240 241
3 241 240 242
3 241 242 243
3 244 245 246
3 246 245 247
3 244 246 248
3 245 244 249
3 249 244 250
3 250 244 251
3 251 244 252
3 246 247 253
3 246 253 254
3 246 254 255
3 256 257 258
3 258 257 259
3 259 257 260
3 257 256 261
3 261 256 262
3 262 256 263
3 259 260 264
3 262 263 265
3 265 263 266
3 259 264 267
3 267 264 268
3 268 264 269
3 265 266 270
3 270 266 271
3 268 269 272
3 270 271 273
3 268 272 274
3 274 272 275
3 275 272 276
3 270 273 277
3 277 273 278
3 275 276 279
3 275 279 278
3 278 279 277
3 280 281 282
3 281 280 283
3 283 280 284
3 285 286 287
3 288 289 290
3 290 289 291
3 292 293 294
3 290 291 295
3 295 291 296
3 296 291 297
3 296 297 298
3 296 298 299
3 300 301 302
3 302 301 303
3 304 305 306
3 302 303 307
3 308 309 310
3 310 309 311
3 312 313 314
3 310 311 315
3 315 311 316
3 315 316 317
3 317 316 318
3 317 318 319
3 320 321 322
3 321 320 323
3 323 320 324
3 323 324 325
3 326 327 328
3 328 327 329
3 327 326 330
3 328 329 331
3 331 329 332
3 331 332 333
3 333 332 334
3 334 332 335
3 336 337 338
3 338 337 339
3 337 336 340
3 338 339 341
3 342 343 344
3 342 344 345
3 343 342 346
3 342 345 347
3 347 345 348
3 347 348 349
3 349 348 350
3 349 350 351
3 352 353 354
3 354 353 355
3 355 353 356
3 352 354 357
3 353 352 358
3 358 352 359
3 359 352 360
3 352 357 361
3 353 358 362
3 353 362 363
3 364 365 366
3 366 365 367
3 367 365 368
3 365 364 369
3 369 364 370
3 370 364 371
3 367 368 372
3 372 368 373
3 370 371 374
3 372 373 375
3 370 374 376
3 376 374 377
3 372 375 378
3 378 375 379
3 379 375 380
3 376 377 381
3 381 377 382
3 382 377 383
3 379 380 384
3 384 380 385
3 382 383 386
3 384 385 387
3 384 387 386
3 386 387 382
3 388 389 390
3 389 388 391
3 391 388 392
3 393 394 395
3 396 397 398
3 398 397 399
3 400 401 402
3 398 399 403
3 403 399 404
3 403 404 405
3 405 404 406
3 406 404 407
3 408 409 410
3 408 410 411
3 411 410 412
3 409 408 413
3 414 415 416
3 416 415 417
3 418 419 420
3 416 417 421
3 421 417 422
3 421 422 423
3 423 422 424
3 423 424 425
